<svg width="134" height="13" viewBox="0 0 134 13" fill="none" xmlns="http://www.w3.org/2000/svg">
<path d="M0.224 12L4.112 0.32H8.224L12.24 12H9.616L6.336 2.08L7.152 2.416H5.12L5.968 2.08L2.768 12H0.224ZM3.12 9.056L3.904 6.944H8.512L9.296 9.056H3.12ZM13.8128 12V0.32H16.3568V12H13.8128ZM16.0368 12V9.776H20.9488V12H16.0368ZM24.8634 12.08V10.096H27.6474C28.138 10.096 28.5114 9.96267 28.7674 9.696C29.0234 9.42933 29.1514 9.056 29.1514 8.576C29.1514 8.096 29.0234 7.728 28.7674 7.472C28.522 7.20533 28.1487 7.072 27.6474 7.072H24.8634V5.552H27.5034C28.3034 5.552 29.018 5.648 29.6474 5.84C30.2767 6.032 30.7674 6.34667 31.1194 6.784C31.482 7.22133 31.6634 7.808 31.6634 8.544V8.768C31.6634 9.472 31.5034 10.0693 31.1834 10.56C30.874 11.0507 30.41 11.4293 29.7914 11.696C29.1727 11.952 28.41 12.08 27.5034 12.08H24.8634ZM22.7034 12.08V0.24H25.1834V12.08H22.7034ZM24.8634 6.672V5.152H27.2154C27.7167 5.152 28.0847 5.024 28.3194 4.768C28.554 4.50133 28.6714 4.144 28.6714 3.696C28.6714 3.23733 28.554 2.88 28.3194 2.624C28.0847 2.35733 27.7167 2.224 27.2154 2.224H24.8634V0.24H27.0394C28.3834 0.24 29.4074 0.522666 30.1114 1.088C30.826 1.64267 31.1834 2.44267 31.1834 3.488V3.712C31.1834 4.448 31.002 5.03467 30.6394 5.472C30.2767 5.89867 29.7807 6.208 29.1514 6.4C28.5327 6.58133 27.8287 6.672 27.0394 6.672H24.8634ZM33.7659 12V0.32H36.2459V12H33.7659ZM35.9259 12V9.888H41.0779V12H35.9259ZM35.9259 7.12V5.008H40.6939V7.12H35.9259ZM35.9259 2.432V0.32H40.9659V2.432H35.9259ZM43.2659 12V0.24H45.8099V12H43.2659ZM50.3539 12L46.8979 6.96H49.6979L53.3139 12H50.3539ZM45.1059 8.224V6.208H48.0019C48.3965 6.208 48.7379 6.128 49.0259 5.968C49.3139 5.808 49.5379 5.584 49.6979 5.296C49.8579 5.008 49.9379 4.67733 49.9379 4.304C49.9379 3.92 49.8579 3.584 49.6979 3.296C49.5379 3.008 49.3139 2.784 49.0259 2.624C48.7379 2.464 48.3965 2.384 48.0019 2.384H45.1059V0.24H47.7939C48.7539 0.24 49.5859 0.384 50.2899 0.672C51.0045 0.959999 51.5485 1.392 51.9219 1.968C52.3059 2.53333 52.4979 3.248 52.4979 4.112V4.368C52.4979 5.24267 52.3059 5.96267 51.9219 6.528C51.5379 7.09333 50.9939 7.52 50.2899 7.808C49.5859 8.08533 48.7539 8.224 47.7939 8.224H45.1059ZM56.914 12V2.224H59.442V12H56.914ZM53.602 2.544V0.32H62.754V2.544H53.602ZM68.446 12V0.32H70.526L73.982 8.112H74.238L77.678 0.32H79.774V12H78.206V2.032L78.318 2.064L75.006 9.584H73.086L69.758 2.064L69.886 2.032V12H68.446ZM88.1088 12V9.44H87.8528V6.48C87.8528 5.89333 87.6981 5.45067 87.3888 5.152C87.0901 4.85333 86.6474 4.704 86.0608 4.704C85.7301 4.704 85.3888 4.70933 85.0368 4.72C84.6848 4.73067 84.3488 4.74133 84.0288 4.752C83.7088 4.76267 83.4314 4.77867 83.1968 4.8V3.456C83.4314 3.43467 83.6768 3.41867 83.9328 3.408C84.1994 3.38667 84.4714 3.376 84.7488 3.376C85.0261 3.36533 85.2928 3.36 85.5488 3.36C86.4234 3.36 87.1381 3.46667 87.6928 3.68C88.2474 3.88267 88.6581 4.21867 88.9248 4.688C89.1914 5.15733 89.3248 5.792 89.3248 6.592V12H88.1088ZM85.3088 12.224C84.6688 12.224 84.1141 12.1173 83.6448 11.904C83.1861 11.68 82.8288 11.36 82.5728 10.944C82.3274 10.528 82.2048 10.0267 82.2048 9.44C82.2048 8.832 82.3381 8.32533 82.6048 7.92C82.8821 7.51467 83.2821 7.21067 83.8048 7.008C84.3274 6.79467 84.9568 6.688 85.6927 6.688H88.0128V7.84H85.6288C85.0101 7.84 84.5354 7.98933 84.2048 8.288C83.8741 8.58667 83.7088 8.97067 83.7088 9.44C83.7088 9.90933 83.8741 10.288 84.2048 10.576C84.5354 10.864 85.0101 11.008 85.6288 11.008C85.9914 11.008 86.3381 10.944 86.6688 10.816C86.9994 10.6773 87.2714 10.4533 87.4848 10.144C87.7088 9.824 87.8314 9.38667 87.8528 8.832L88.2688 9.44C88.2154 10.048 88.0661 10.56 87.8208 10.976C87.5861 11.3813 87.2554 11.6907 86.8288 11.904C86.4128 12.1173 85.9061 12.224 85.3088 12.224ZM92.1439 12V3.456H93.3599V6.976H93.2959C93.2959 5.728 93.5679 4.816 94.1119 4.24C94.6665 3.65333 95.4932 3.36 96.5919 3.36H96.8799V4.736H96.3359C95.4825 4.736 94.8265 4.96533 94.3679 5.424C93.9092 5.872 93.6799 6.52267 93.6799 7.376V12H92.1439ZM98.7064 12V3.456H99.9224V6.976H99.8584C99.8584 5.728 100.13 4.816 100.674 4.24C101.229 3.65333 102.056 3.36 103.154 3.36H103.442V4.736H102.898C102.045 4.736 101.389 4.96533 100.93 5.424C100.472 5.872 100.242 6.52267 100.242 7.376V12H98.7064ZM108.807 12.288C108.06 12.288 107.415 12.16 106.871 11.904C106.327 11.648 105.884 11.312 105.543 10.896C105.202 10.4693 104.946 9.99467 104.775 9.472C104.615 8.94933 104.535 8.416 104.535 7.872V7.584C104.535 7.02933 104.615 6.49067 104.775 5.968C104.946 5.44533 105.202 4.976 105.543 4.56C105.884 4.13333 106.316 3.79733 106.839 3.552C107.372 3.296 107.996 3.168 108.711 3.168C109.639 3.168 110.402 3.37067 110.999 3.776C111.607 4.17067 112.055 4.68267 112.343 5.312C112.642 5.94133 112.791 6.61333 112.791 7.328V8.016H105.207V6.864H111.671L111.319 7.488C111.319 6.88 111.223 6.35733 111.031 5.92C110.839 5.472 110.551 5.12533 110.167 4.88C109.783 4.63467 109.298 4.512 108.711 4.512C108.103 4.512 107.596 4.65067 107.191 4.928C106.796 5.20533 106.498 5.584 106.295 6.064C106.103 6.544 106.007 7.09867 106.007 7.728C106.007 8.336 106.103 8.88533 106.295 9.376C106.498 9.856 106.807 10.24 107.223 10.528C107.639 10.8053 108.167 10.944 108.807 10.944C109.479 10.944 110.023 10.7947 110.439 10.496C110.866 10.1973 111.122 9.85067 111.207 9.456H112.647C112.53 10.0427 112.295 10.5493 111.943 10.976C111.591 11.4027 111.148 11.728 110.615 11.952C110.082 12.176 109.479 12.288 108.807 12.288ZM114.972 12V3.456H116.188V6.976H116.124C116.124 5.728 116.396 4.816 116.94 4.24C117.495 3.65333 118.321 3.36 119.42 3.36H119.708V4.736H119.164C118.311 4.736 117.655 4.96533 117.196 5.424C116.737 5.872 116.508 6.52267 116.508 7.376V12H114.972ZM125.377 12.288C124.63 12.288 123.974 12.16 123.409 11.904C122.843 11.648 122.363 11.312 121.969 10.896C121.585 10.4693 121.291 9.99467 121.089 9.472C120.897 8.94933 120.801 8.416 120.801 7.872V7.584C120.801 7.04 120.902 6.50667 121.105 5.984C121.307 5.45067 121.606 4.976 122.001 4.56C122.395 4.13333 122.875 3.79733 123.441 3.552C124.006 3.296 124.651 3.168 125.377 3.168C126.102 3.168 126.747 3.296 127.313 3.552C127.878 3.79733 128.358 4.13333 128.753 4.56C129.147 4.976 129.446 5.45067 129.649 5.984C129.851 6.50667 129.953 7.04 129.953 7.584V7.872C129.953 8.416 129.851 8.94933 129.649 9.472C129.457 9.99467 129.163 10.4693 128.769 10.896C128.385 11.312 127.91 11.648 127.345 11.904C126.779 12.16 126.123 12.288 125.377 12.288ZM125.377 10.912C126.017 10.912 126.561 10.7733 127.009 10.496C127.467 10.208 127.814 9.824 128.049 9.344C128.294 8.864 128.417 8.32533 128.417 7.728C128.417 7.12 128.294 6.576 128.049 6.096C127.803 5.616 127.451 5.23733 126.993 4.96C126.545 4.68267 126.006 4.544 125.377 4.544C124.758 4.544 124.219 4.68267 123.761 4.96C123.302 5.23733 122.95 5.616 122.705 6.096C122.459 6.576 122.337 7.12 122.337 7.728C122.337 8.32533 122.454 8.864 122.689 9.344C122.934 9.824 123.281 10.208 123.729 10.496C124.187 10.7733 124.737 10.912 125.377 10.912Z" fill="#fff"/>
<path d="M131.949 12V10.048H133.805V12H131.949Z" fill="#FF0000"/>
</svg>
